<?xml version="1.0" standalone="no"?>
<!DOCTYPE svg PUBLIC "-//W3C//DTD SVG 20010904//EN"
 "http://www.w3.org/TR/2001/REC-SVG-20010904/DTD/svg10.dtd">
<svg version="1.0" xmlns="http://www.w3.org/2000/svg"
 width="7730.000000pt" height="7730.000000pt" viewBox="0 0 7730.000000 7730.000000"
 preserveAspectRatio="xMidYMid meet">
<metadata>
Created by potrace 1.16, written by Peter Selinger 2001-2019
</metadata>
<g transform="translate(0.000000,7730.000000) scale(0.100000,-0.100000)"
fill="#000000" stroke="none">
<path d="M52975 65909 c-1717 -80 -3385 -724 -4775 -1843 -338 -272 -768 -684
-1047 -1003 -786 -897 -1356 -1894 -1717 -3001 -218 -669 -346 -1354 -387
-2082 -20 -353 -2 -971 37 -1297 l6 -53 -4883 0 c-3824 -1 -4887 -3 -4900 -13
-40 -30 -40 -43 -5 -328 19 -151 38 -305 41 -344 9 -84 25 -119 65 -140 26
-13 569 -15 4929 -15 l4900 0 10 -37 c73 -284 104 -392 167 -584 41 -124 94
-277 119 -340 25 -63 45 -117 45 -121 0 -5 -2261 -8 -5024 -8 -2763 0 -5032
-3 -5041 -6 -8 -4 -22 -19 -30 -34 -12 -23 -11 -71 6 -356 11 -181 25 -346 30
-367 6 -22 20 -44 36 -55 26 -16 299 -17 5229 -20 l5203 -2 82 -138 c449 -753
1010 -1396 1696 -1947 84 -67 207 -161 274 -208 l121 -87 -13858 0 -13859 0
-50 -24 c-85 -40 -138 -115 -155 -222 -6 -33 -10 -142 -10 -244 0 -197 -13
-669 -30 -1070 -92 -2205 -327 -4522 -761 -7500 -149 -1025 -320 -2121 -655
-4195 -276 -1711 -445 -2784 -582 -3696 -27 -177 -30 -190 -65 -242 -152 -228
-232 -525 -225 -832 l3 -146 -70 -20 c-117 -33 -556 -183 -572 -194 -13 -10
-7 -22 38 -78 30 -37 75 -104 101 -150 26 -45 51 -88 56 -96 7 -12 46 2 208
71 263 114 561 224 822 306 l212 67 3 195 c3 153 9 217 26 300 115 548 460
998 940 1226 112 54 294 111 411 129 152 24 151 25 -15 19 -801 -26 -1385
-219 -1749 -577 -40 -40 -87 -90 -105 -112 l-32 -40 5 35 c4 19 49 314 101
655 123 810 226 1461 499 3155 409 2538 563 3535 740 4785 413 2918 641 5377
696 7480 19 733 23 804 49 853 31 60 93 118 148 136 42 15 1297 16 13901 16
l13855 0 136 -88 c1200 -781 2599 -1187 4066 -1181 255 1 255 11 2 28 -591 42
-1215 171 -1813 375 -2108 719 -3756 2373 -4474 4492 -189 556 -294 1042 -365
1689 -25 224 -30 355 -30 775 0 496 8 634 60 1035 223 1724 1013 3376 2230
4665 1181 1251 2675 2106 4305 2463 286 63 490 98 660 112 19 2 35 4 35 5 0 6
142 23 205 24 25 1 52 5 60 10 12 7 13 6 3 -5 -10 -10 -13 -909 -13 -4422 l0
-4408 28 3 c15 2 26 8 25 15 -1 6 4 17 12 23 8 7 15 18 15 24 0 6 -5 4 -10 -4
-7 -11 -10 -11 -10 -2 0 7 -4 11 -9 7 -5 -3 -12 -1 -15 4 -3 4 2 8 12 8 34 0
42 3 42 17 0 7 7 19 15 26 8 7 12 16 9 21 -3 5 0 9 7 9 16 0 1 16 -21 23 -8 2
-2 3 13 1 15 -2 25 0 22 5 -3 5 1 12 7 15 7 3 3 3 -9 0 -17 -4 -22 -1 -20 15
1 15 4 17 14 9 8 -6 15 -9 16 -7 18 25 40 64 36 65 -2 0 4 8 14 18 9 10 17 25
17 35 0 9 4 21 9 27 14 13 162 314 155 314 -3 0 2 7 11 16 9 9 14 23 11 31 -3
8 -2 12 2 9 5 -3 37 54 72 127 34 73 107 221 162 330 54 109 96 203 92 209 -4
6 -3 9 2 6 5 -3 439 870 964 1940 525 1070 977 1979 1004 2020 136 207 374
372 626 434 122 31 321 30 445 0 313 -78 557 -313 651 -628 32 -110 44 -302
24 -421 -21 -132 -55 -214 -277 -667 -119 -242 -277 -565 -351 -716 -74 -151
-183 -374 -242 -495 -714 -1460 -2715 -5535 -2736 -5571 -13 -23 -20 -45 -16
-49 4 -5 2 -5 -4 -2 -11 6 -51 -52 -45 -68 1 -5 0 -7 -4 -3 -4 4 -29 -19 -55
-50 -27 -31 -63 -70 -82 -86 -74 -65 -262 -186 -288 -186 -4 0 -25 -7 -46 -16
-22 -9 -40 -15 -40 -13 -1 2 -11 -4 -21 -14 -11 -9 -22 -14 -26 -11 -9 10 -57
-5 -57 -17 0 -8 6 -7 18 2 9 7 14 9 9 4 -4 -4 1 -18 10 -29 14 -15 14 -18 2
-8 -9 6 -19 9 -22 5 -4 -3 -22 -8 -40 -10 -24 -2 -34 1 -34 11 0 11 5 12 17 6
9 -5 22 -5 31 1 11 7 10 9 -6 9 -17 0 -17 2 -5 10 8 5 10 10 4 10 -6 0 -14 -3
-18 -7 -7 -7 -47 -13 -93 -13 l-23 0 0 -1772 c0 -1203 -3 -1774 -10 -1778 -6
-4 10 -6 34 -5 25 1 43 -2 40 -6 -3 -5 0 -9 7 -9 8 0 9 -3 0 -14 -9 -11 -5
-13 21 -11 47 4 48 4 48 15 0 5 -8 7 -17 4 -16 -5 -15 -4 1 10 13 11 23 13 31
6 7 -6 21 -8 31 -5 11 4 6 -1 -9 -10 -16 -9 -27 -19 -24 -21 9 -10 57 9 57 21
0 8 5 17 11 21 8 4 9 -1 4 -16 l-7 -23 87 7 c49 3 93 10 100 16 7 6 15 6 21 0
19 -19 521 48 859 115 1401 277 2695 910 3805 1860 558 477 1082 1060 1488
1654 51 74 92 130 92 124 0 -5 45 -17 100 -27 362 -63 880 -245 1310 -460
1403 -702 2248 -1910 2479 -3546 44 -315 55 -495 56 -932 0 -229 -3 -419 -7
-423 -3 -4 -57 -11 -120 -16 -554 -45 -1282 -124 -1568 -169 -64 -10 -351 -52
-480 -70 -108 -15 -524 -87 -730 -126 -277 -52 -615 -121 -775 -158 -60 -14
-177 -41 -260 -60 -243 -55 -623 -154 -895 -232 -47 -14 -103 -29 -125 -35
-76 -19 -401 -120 -630 -196 -363 -120 -794 -276 -960 -348 -16 -7 -75 -31
-130 -53 -481 -192 -1144 -513 -1540 -745 -38 -23 -90 -52 -115 -66 -55 -29
-387 -235 -490 -304 l-75 -51 70 80 c786 891 1336 1477 2159 2300 552 552 824
814 1396 1346 131 121 108 100 351 319 371 334 725 645 954 839 55 46 107 91
116 100 16 15 165 141 424 356 164 137 127 106 365 300 113 91 219 178 236
193 17 14 46 37 64 51 19 14 99 77 179 140 167 133 595 465 721 560 47 35 90
69 97 75 7 5 53 39 102 75 50 36 90 71 91 77 0 14 -144 136 -167 141 -11 3
-73 -37 -138 -90 -5 -5 -71 -54 -145 -111 -249 -187 -774 -597 -915 -713 -49
-40 -164 -133 -255 -206 -91 -73 -219 -178 -285 -233 -66 -55 -169 -140 -230
-190 -381 -314 -1255 -1080 -1660 -1456 -27 -25 -115 -106 -195 -179 -141
-129 -356 -334 -702 -665 -91 -88 -377 -371 -635 -630 -407 -409 -586 -593
-958 -985 -126 -132 -349 -373 -505 -546 -25 -27 -92 -101 -150 -164 -143
-156 -639 -716 -725 -819 -16 -20 -86 -102 -155 -182 -69 -80 -180 -211 -247
-291 -68 -80 -134 -153 -148 -162 -14 -9 -25 -21 -25 -27 0 -6 -15 -30 -32
-53 -60 -76 -218 -265 -227 -270 -4 -3 -44 15 -87 40 -157 89 -265 97 -396 28
-222 -116 -203 -109 -302 -108 -50 1 -129 4 -176 8 -76 6 -89 5 -118 -14 -66
-41 -84 -108 -112 -421 -13 -148 -36 -234 -91 -339 -42 -79 -44 -88 -44 -165
1 -70 4 -87 33 -142 18 -35 61 -94 97 -132 l65 -68 -25 -74 c-40 -115 -56
-229 -56 -389 0 -214 43 -411 117 -538 42 -72 121 -149 182 -179 48 -24 70
-28 171 -31 64 -2 140 0 169 6 l52 9 0 -71 c-1 -162 -61 -478 -115 -601 -100
-227 -154 -313 -255 -409 -81 -76 -188 -132 -415 -215 -389 -143 -457 -178
-463 -235 -10 -79 125 -154 343 -190 190 -32 351 -40 750 -40 778 1 1519 72
1921 185 390 109 831 358 899 508 17 38 17 42 1 66 -22 34 -32 37 -296 101
-653 159 -990 290 -1213 471 -87 71 -141 144 -217 294 -61 119 -170 378 -170
403 0 7 21 30 48 51 26 21 106 106 177 188 81 93 167 180 229 231 253 206 280
247 279 421 -1 123 -30 259 -113 524 -107 342 -106 340 -225 374 -44 12 -111
40 -148 61 -100 55 -347 246 -319 246 6 0 38 34 71 74 184 232 246 297 406
425 403 322 759 565 1268 865 185 109 746 402 927 484 25 11 85 39 133 61 49
23 90 41 92 41 2 0 43 18 90 40 47 22 88 40 90 40 3 0 28 11 57 24 63 28 68
30 269 111 525 213 1265 463 1804 610 66 18 156 43 200 55 90 24 543 137 680
169 1109 257 2296 441 3530 546 99 8 197 17 218 19 l37 4 -5 -46 c-30 -270
-40 -354 -66 -522 -303 -1978 -1308 -4174 -2798 -6110 -271 -352 -586 -730
-860 -1030 -177 -194 -230 -250 -434 -457 -115 -116 -207 -216 -203 -221 7
-12 412 405 653 671 2026 2239 3384 4960 3693 7400 11 87 29 282 41 435 18
237 20 331 16 657 -3 209 -8 403 -11 430 -4 28 -11 100 -17 160 -36 386 -133
840 -254 1201 -353 1047 -1023 1870 -1975 2424 -458 266 -1062 501 -1544 601
-76 15 -140 30 -142 31 -1 2 20 39 48 83 315 492 583 1019 788 1553 62 162
176 490 184 530 1 9 6 24 9 32 11 25 117 412 122 444 3 17 18 87 35 156 66
277 132 707 166 1070 22 235 30 891 15 1144 -42 678 -159 1300 -363 1926 -60
182 -144 408 -159 427 -7 7 -8 13 -5 13 4 0 1 10 -6 23 -6 12 -13 27 -14 33
-5 30 -122 286 -220 484 -224 449 -467 836 -769 1225 -333 429 -811 907 -1240
1240 -1201 933 -2636 1455 -4185 1524 -247 11 -1127 11 -1365 0z m-7875 -9301
c0 -61 102 -646 136 -782 l6 -26 -4906 2 -4906 3 -30 30 c-30 30 -30 31 -66
320 -53 427 -52 417 -19 443 l28 22 4878 0 c3760 0 4879 -3 4879 -12z m535
-2010 c68 -162 189 -418 268 -566 43 -79 77 -146 77 -148 0 -2 -2337 -4 -5194
-4 l-5194 0 -30 25 c-35 29 -32 7 -57 410 -22 348 -23 324 9 352 l27 23 5027
0 5028 0 39 -92z"/>
<path d="M13383 58832 c-22 -3 -22 -3 -3 -34 10 -18 17 -35 14 -40 -3 -4 0 -8
6 -8 6 0 8 -4 5 -10 -3 -5 -1 -10 5 -10 6 0 8 -4 5 -10 -3 -5 -1 -10 6 -10 7
0 9 -3 6 -7 -4 -3 9 -34 28 -68 19 -34 32 -65 28 -69 -3 -3 0 -6 7 -6 7 0 10
-3 7 -7 -4 -3 6 -30 22 -59 17 -28 27 -55 24 -58 -4 -3 0 -6 7 -6 7 0 10 -3 7
-7 -4 -3 4 -25 18 -48 13 -23 21 -45 18 -49 -3 -3 0 -6 7 -6 7 0 10 -3 7 -7
-4 -3 4 -25 18 -48 13 -23 21 -45 18 -49 -3 -3 0 -6 7 -6 7 0 10 -3 7 -7 -4
-3 3 -21 14 -40 11 -18 18 -33 15 -33 -4 0 1 -15 11 -32 9 -18 16 -36 15 -40
-1 -5 3 -8 10 -8 6 0 8 -3 5 -7 -4 -3 3 -21 14 -40 11 -18 18 -33 14 -33 -4 0
3 -16 15 -35 12 -19 19 -35 15 -35 -4 0 3 -16 15 -35 12 -19 19 -35 15 -35 -3
0 0 -10 7 -22 7 -13 11 -26 10 -30 -1 -5 3 -8 10 -8 6 0 8 -3 5 -7 -4 -3 0
-17 8 -30 9 -13 13 -23 10 -23 -3 0 0 -10 7 -22 7 -13 11 -26 10 -30 -1 -5 3
-8 8 -8 5 0 9 -3 8 -7 -1 -5 3 -18 10 -30 7 -13 10 -23 6 -23 -3 0 1 -11 10
-25 9 -14 14 -25 10 -25 -3 0 1 -11 10 -25 9 -14 14 -25 10 -25 -3 0 1 -11 10
-25 9 -14 14 -25 10 -25 -3 0 1 -11 10 -25 9 -14 14 -25 10 -25 -3 0 1 -11 10
-25 9 -14 14 -25 10 -25 -3 0 1 -11 10 -25 9 -14 14 -25 11 -25 -3 0 0 -10 7
-22 7 -13 13 -25 13 -28 0 -3 6 -15 13 -27 7 -13 10 -23 6 -23 -3 0 -1 -7 6
-15 7 -8 9 -15 6 -15 -4 0 -1 -10 6 -22 7 -13 13 -25 13 -28 0 -3 6 -15 13
-27 7 -13 10 -23 6 -23 -3 0 -1 -7 6 -15 7 -8 9 -15 5 -15 -4 0 0 -11 9 -25 9
-14 14 -25 10 -25 -4 0 -1 -7 6 -15 7 -8 9 -15 6 -15 -4 0 -1 -10 6 -22 7 -13
13 -26 14 -30 1 -5 3 -10 4 -13 1 -3 3 -8 4 -12 1 -5 7 -18 14 -30 7 -13 10
-23 6 -23 -3 0 -1 -7 6 -15 7 -8 9 -15 5 -15 -4 0 -2 -7 5 -15 7 -8 9 -15 6
-15 -4 0 -1 -10 6 -22 7 -13 13 -26 14 -30 1 -5 3 -10 4 -13 1 -3 4 -9 5 -15
1 -5 4 -12 5 -15 1 -3 4 -9 5 -15 1 -5 4 -13 5 -17 1 -5 2 -11 1 -15 0 -5 4
-8 11 -8 6 0 8 -3 5 -7 -4 -3 -2 -12 4 -20 6 -7 8 -13 4 -13 -4 0 -2 -7 5 -15
7 -8 9 -15 5 -15 -4 0 -2 -7 5 -15 7 -8 9 -15 5 -15 -4 0 -2 -7 5 -15 7 -8 9
-15 5 -15 -4 0 -2 -7 5 -15 7 -8 9 -15 5 -15 -4 0 0 -11 9 -25 9 -13 18 -35
20 -47 3 -13 5 -24 7 -25 1 -2 3 -7 4 -13 1 -5 4 -12 5 -15 1 -3 4 -9 5 -15 1
-5 4 -12 5 -15 1 -3 4 -9 5 -15 1 -5 4 -12 5 -15 1 -3 4 -9 5 -15 1 -5 4 -12
5 -15 1 -3 4 -9 5 -15 1 -5 4 -12 5 -15 1 -3 4 -9 5 -15 1 -5 4 -12 5 -15 1
-3 4 -9 5 -15 1 -5 4 -12 5 -15 1 -3 4 -9 5 -15 1 -5 4 -12 5 -15 1 -3 4 -9 5
-15 1 -5 4 -12 5 -15 1 -3 4 -9 5 -15 1 -5 4 -12 5 -15 1 -3 4 -9 5 -15 1 -5
4 -12 5 -15 1 -3 4 -9 5 -15 1 -5 4 -12 5 -15 1 -3 4 -9 5 -15 1 -5 3 -11 5
-12 1 -2 3 -11 6 -20 2 -10 6 -26 8 -35 3 -10 5 -19 6 -20 2 -2 4 -7 5 -13 1
-5 4 -12 5 -15 1 -3 4 -9 5 -15 1 -5 4 -12 5 -15 1 -3 4 -9 5 -15 1 -5 4 -12
5 -15 1 -3 4 -9 5 -15 1 -5 3 -11 5 -12 1 -2 3 -11 6 -20 2 -10 6 -26 8 -35 3
-10 5 -19 6 -20 2 -2 4 -7 5 -13 1 -5 4 -12 5 -15 1 -3 4 -9 5 -15 1 -5 3 -11
5 -12 1 -2 4 -12 6 -23 8 -33 12 -50 14 -52 2 -2 4 -7 5 -13 1 -5 3 -11 5 -12
1 -2 3 -11 6 -20 2 -10 6 -26 8 -35 3 -10 5 -19 6 -20 2 -2 4 -7 5 -13 1 -5 4
-13 5 -17 1 -5 3 -12 5 -18 1 -5 3 -13 5 -17 1 -5 4 -12 5 -18 1 -5 3 -11 5
-12 1 -2 3 -11 6 -20 2 -10 6 -26 8 -35 3 -10 5 -18 6 -18 2 0 6 -16 14 -50 2
-11 5 -20 6 -20 2 0 6 -16 14 -50 2 -11 5 -20 6 -20 2 0 6 -16 14 -50 2 -11 5
-22 6 -25 1 -3 3 -9 5 -15 1 -5 3 -12 4 -15 2 -3 4 -13 7 -22 2 -10 6 -26 8
-35 3 -10 5 -20 6 -23 1 -3 3 -9 5 -15 1 -5 3 -12 4 -15 2 -3 4 -13 7 -22 2
-10 6 -26 8 -35 3 -10 5 -20 6 -23 1 -3 3 -9 5 -15 1 -5 3 -12 4 -15 2 -3 4
-12 6 -20 2 -8 6 -25 9 -37 3 -13 9 -33 12 -45 3 -13 6 -27 7 -33 2 -5 6 -16
10 -22 5 -7 6 -17 2 -22 -3 -5 -1 -12 4 -16 6 -3 8 -12 5 -19 -3 -8 -1 -17 5
-20 6 -4 8 -13 5 -20 -3 -8 -1 -17 5 -20 6 -4 8 -13 5 -20 -3 -8 -1 -17 5 -20
6 -4 8 -13 5 -20 -3 -8 -1 -17 5 -20 6 -4 8 -13 5 -20 -3 -8 0 -17 5 -21 6 -3
9 -11 5 -16 -3 -5 0 -16 6 -24 6 -8 9 -19 6 -24 -4 -5 -2 -12 3 -16 5 -3 10
-13 9 -23 0 -9 3 -27 6 -39 15 -58 18 -69 18 -83 0 -8 5 -20 10 -27 5 -7 7
-17 4 -22 -4 -5 -2 -12 3 -16 5 -3 10 -13 9 -23 0 -9 3 -28 7 -42 4 -14 8 -34
10 -45 2 -11 7 -31 10 -45 3 -14 8 -34 10 -45 2 -11 6 -31 10 -45 6 -23 11
-48 19 -95 2 -11 5 -20 6 -20 1 0 4 -9 6 -20 6 -40 13 -70 19 -95 6 -24 10
-43 20 -95 3 -14 7 -36 10 -50 3 -14 7 -36 10 -50 3 -14 7 -36 10 -50 2 -14 7
-36 10 -50 3 -14 7 -36 10 -50 13 -61 15 -72 21 -105 5 -35 9 -57 20 -107 3
-16 7 -39 9 -53 2 -14 7 -38 10 -55 3 -16 8 -41 10 -55 2 -14 7 -41 10 -60 4
-19 8 -46 11 -60 5 -25 9 -51 19 -110 3 -16 7 -43 10 -60 3 -16 7 -43 10 -60
3 -16 7 -42 9 -57 3 -16 7 -44 10 -63 4 -19 9 -51 11 -70 3 -19 7 -48 10 -65
3 -16 7 -48 11 -70 3 -22 7 -51 9 -65 2 -14 7 -45 10 -70 3 -25 8 -56 10 -70
2 -14 7 -45 10 -70 3 -25 8 -58 11 -75 2 -16 6 -46 8 -65 3 -19 7 -54 10 -77
13 -94 25 -196 32 -258 3 -27 7 -61 9 -75 4 -25 12 -102 20 -175 2 -22 7 -67
10 -100 4 -33 8 -76 10 -95 2 -19 6 -64 10 -100 4 -36 8 -81 10 -100 2 -19 6
-62 9 -95 3 -33 8 -94 11 -135 4 -41 8 -95 10 -120 4 -46 11 -142 20 -265 9
-117 24 -367 30 -485 19 -381 16 -308 30 -825 11 -384 11 -1124 0 -1515 -11
-435 -13 -489 -20 -645 -25 -563 -47 -922 -91 -1475 -3 -41 -7 -95 -9 -120 -2
-25 -6 -73 -9 -107 -3 -35 -8 -91 -11 -125 -10 -112 -14 -152 -20 -208 -3 -30
-7 -80 -10 -110 -5 -63 -13 -144 -21 -210 -2 -25 -6 -65 -9 -90 -3 -25 -7 -65
-9 -90 -3 -25 -8 -72 -11 -105 -3 -33 -8 -76 -10 -95 -5 -41 -12 -103 -20
-180 -4 -30 -8 -68 -10 -85 -2 -16 -6 -51 -9 -77 -3 -27 -9 -69 -12 -95 -3
-27 -7 -61 -9 -78 -2 -16 -6 -55 -10 -85 -4 -30 -9 -73 -11 -95 -2 -22 -7 -58
-9 -80 -3 -22 -7 -53 -9 -70 -2 -16 -7 -49 -10 -72 -3 -24 -9 -62 -12 -85 -3
-24 -7 -56 -9 -73 -2 -16 -6 -49 -9 -72 -3 -24 -9 -62 -12 -85 -3 -24 -7 -56
-9 -73 -3 -16 -7 -50 -10 -75 -4 -25 -8 -56 -10 -70 -2 -14 -7 -45 -10 -70 -3
-25 -8 -56 -10 -70 -2 -14 -6 -47 -10 -75 -7 -59 -13 -99 -20 -140 -3 -16 -8
-48 -11 -70 -3 -22 -7 -51 -9 -65 -2 -14 -6 -45 -10 -70 -10 -75 -16 -114 -21
-142 -8 -55 -13 -84 -18 -123 -4 -22 -8 -53 -11 -70 -3 -16 -8 -48 -11 -70 -3
-22 -7 -52 -10 -67 -2 -16 -6 -40 -8 -55 -2 -16 -7 -46 -11 -68 -4 -22 -9 -52
-11 -67 -7 -50 -12 -82 -19 -123 -4 -22 -9 -52 -11 -67 -2 -16 -6 -40 -8 -55
-5 -35 -16 -102 -21 -128 -6 -32 -17 -98 -21 -127 -2 -16 -6 -41 -9 -58 -3
-16 -7 -43 -10 -60 -3 -16 -7 -43 -10 -60 -3 -16 -7 -43 -10 -60 -3 -16 -7
-43 -10 -60 -10 -61 -14 -86 -19 -110 -3 -14 -8 -43 -11 -65 -10 -65 -16 -98
-21 -125 -4 -24 -8 -41 -19 -107 -9 -58 -16 -99 -21 -123 -6 -30 -12 -70 -18
-107 -6 -38 -16 -94 -21 -118 -2 -11 -7 -36 -10 -55 -4 -19 -8 -46 -11 -60 -3
-14 -7 -36 -9 -50 -2 -14 -7 -41 -10 -60 -4 -19 -8 -44 -10 -55 -3 -11 -7 -36
-10 -55 -4 -19 -8 -44 -10 -55 -3 -11 -7 -36 -10 -55 -4 -19 -8 -44 -10 -55
-3 -11 -7 -36 -10 -55 -4 -19 -8 -44 -10 -55 -3 -11 -7 -36 -10 -55 -4 -19 -8
-44 -10 -55 -9 -44 -16 -81 -20 -105 -2 -14 -6 -36 -9 -50 -3 -14 -8 -41 -11
-60 -7 -41 -13 -71 -20 -102 -3 -13 -7 -39 -11 -58 -7 -46 -13 -80 -19 -105
-3 -11 -7 -36 -11 -55 -6 -42 -10 -61 -30 -157 -3 -16 -7 -39 -9 -53 -5 -33
-14 -80 -20 -105 -8 -35 -15 -69 -21 -105 -9 -56 -14 -84 -19 -105 -11 -46
-23 -109 -31 -155 -8 -53 -14 -83 -19 -105 -6 -31 -14 -67 -20 -100 -3 -16 -8
-39 -10 -50 -3 -11 -7 -33 -10 -50 -4 -16 -8 -41 -11 -55 -3 -14 -7 -36 -9
-50 -4 -26 -12 -68 -20 -110 -3 -14 -7 -36 -10 -50 -3 -14 -7 -36 -10 -50 -3
-14 -7 -35 -10 -47 -3 -13 -7 -35 -11 -50 -3 -16 -7 -37 -9 -48 -3 -11 -7 -33
-10 -50 -8 -38 -15 -75 -20 -100 -3 -11 -7 -33 -10 -50 -6 -29 -10 -51 -21
-105 -3 -14 -7 -36 -9 -50 -4 -26 -12 -68 -20 -110 -3 -14 -7 -36 -10 -50 -3
-14 -7 -34 -10 -45 -2 -11 -6 -33 -10 -50 -7 -38 -14 -75 -20 -100 -2 -11 -6
-33 -10 -50 -3 -16 -7 -41 -10 -55 -3 -14 -7 -36 -10 -50 -3 -14 -7 -36 -10
-50 -3 -14 -7 -36 -10 -50 -3 -14 -7 -36 -10 -50 -3 -14 -7 -36 -10 -50 -3
-14 -7 -34 -10 -45 -2 -11 -6 -33 -10 -50 -3 -16 -7 -41 -10 -55 -3 -14 -7
-36 -10 -50 -3 -14 -7 -36 -10 -50 -3 -14 -7 -34 -9 -45 -2 -11 -5 -20 -6 -20
-1 0 -4 -9 -6 -20 -3 -19 -8 -41 -19 -100 -3 -14 -8 -36 -10 -50 -3 -14 -8
-36 -10 -50 -3 -14 -8 -36 -10 -50 -3 -14 -8 -36 -10 -50 -3 -14 -8 -36 -10
-50 -3 -14 -8 -36 -10 -50 -3 -14 -8 -36 -10 -50 -3 -14 -8 -36 -10 -50 -3
-14 -8 -36 -10 -50 -3 -14 -8 -36 -10 -50 -3 -14 -8 -36 -10 -50 -3 -14 -8
-36 -10 -50 -3 -14 -8 -36 -10 -50 -3 -14 -8 -36 -10 -50 -3 -14 -8 -36 -10
-50 -3 -14 -8 -36 -10 -50 -3 -14 -8 -36 -10 -50 -3 -14 -7 -36 -10 -50 -2
-14 -7 -36 -10 -50 -2 -14 -7 -36 -10 -50 -2 -14 -7 -36 -10 -50 -2 -14 -7
-36 -10 -50 -2 -14 -7 -36 -10 -50 -2 -14 -7 -36 -10 -50 -2 -14 -7 -36 -10
-50 -2 -14 -7 -36 -10 -50 -2 -14 -7 -36 -10 -50 -2 -14 -7 -36 -10 -50 -2
-14 -7 -36 -10 -50 -3 -14 -7 -36 -10 -50 -3 -14 -8 -36 -10 -50 -3 -14 -8
-36 -10 -50 -3 -14 -8 -36 -10 -50 -3 -14 -8 -36 -10 -50 -3 -14 -8 -36 -10
-50 -5 -24 -8 -41 -21 -102 -3 -16 -7 -39 -10 -53 -3 -14 -7 -36 -10 -50 -3
-14 -7 -34 -9 -45 -3 -11 -7 -36 -11 -55 -7 -47 -13 -80 -19 -110 -3 -14 -7
-36 -10 -50 -3 -14 -7 -36 -10 -50 -3 -14 -7 -36 -10 -50 -3 -14 -8 -36 -11
-50 -3 -14 -7 -34 -9 -45 -3 -11 -7 -33 -10 -50 -4 -16 -8 -41 -11 -55 -3 -14
-7 -36 -9 -50 -5 -30 -16 -90 -30 -155 -3 -14 -7 -36 -10 -50 -9 -42 -16 -79
-20 -105 -5 -33 -20 -109 -31 -157 -7 -34 -15 -75 -19 -103 -4 -26 -11 -63
-20 -105 -11 -55 -16 -81 -20 -105 -5 -29 -14 -77 -20 -105 -3 -11 -7 -36 -11
-55 -9 -55 -14 -83 -19 -105 -2 -11 -7 -36 -10 -55 -6 -35 -8 -46 -20 -105 -3
-16 -8 -41 -10 -55 -2 -14 -6 -36 -9 -50 -3 -14 -8 -41 -11 -60 -6 -36 -11
-60 -21 -107 -3 -16 -7 -39 -9 -53 -2 -14 -7 -38 -10 -55 -3 -16 -8 -41 -10
-55 -2 -14 -7 -38 -10 -55 -3 -16 -8 -41 -10 -55 -2 -14 -7 -38 -10 -55 -3
-16 -8 -41 -10 -55 -2 -14 -7 -41 -10 -60 -4 -19 -8 -44 -10 -55 -3 -11 -7
-36 -10 -55 -4 -19 -8 -46 -11 -60 -3 -14 -7 -36 -9 -50 -2 -14 -7 -41 -10
-60 -4 -19 -8 -46 -11 -60 -3 -14 -7 -36 -9 -50 -2 -14 -7 -36 -9 -50 -3 -14
-8 -43 -11 -65 -4 -22 -8 -51 -11 -65 -3 -14 -7 -37 -9 -52 -3 -16 -7 -40 -10
-55 -2 -16 -7 -39 -9 -53 -3 -14 -8 -43 -11 -65 -10 -65 -16 -98 -21 -125 -7
-39 -15 -83 -16 -103 -2 -14 -8 -17 -23 -12 -335 108 -640 107 -965 -1 -556
-185 -978 -674 -1112 -1287 -20 -89 -22 -131 -22 -337 -1 -223 1 -241 28 -354
63 -268 176 -491 349 -687 105 -120 285 -254 437 -326 41 -19 76 -36 77 -37 2
-1 -13 -56 -33 -122 -91 -309 -190 -732 -243 -1039 l-27 -160 -98 -8 c-496
-38 -937 -304 -1231 -742 -207 -308 -308 -668 -292 -1030 19 -406 161 -742
430 -1014 201 -204 438 -333 720 -392 111 -24 358 -32 471 -16 l59 9 -102 53
c-145 76 -221 133 -346 259 -214 214 -344 465 -407 781 -29 144 -31 439 -5
582 67 360 219 658 467 916 282 294 641 469 1018 496 56 4 106 12 111 17 5 5
14 45 21 89 40 264 140 706 236 1038 30 104 54 191 54 192 0 2 -42 23 -92 48
-51 25 -128 69 -172 98 -101 66 -260 220 -342 329 -131 174 -235 423 -275 663
-31 178 -24 451 15 621 76 330 222 606 443 836 278 291 636 469 1010 505 l71
7 7 46 c13 91 146 851 216 1232 183 1006 276 1485 794 4080 228 1141 457 2298
509 2570 748 3891 1070 6364 1178 9045 16 410 16 1837 0 2225 -85 1995 -309
3603 -741 5305 -351 1383 -867 2818 -1460 4059 -39 82 -71 150 -71 152 0 1 10
4 23 6 12 2 -32 3 -98 4 -66 0 -130 -2 -142 -4z"/>
<path d="M20340 57189 c0 -29 89 -678 96 -701 5 -17 40 -18 558 -18 l553 0 11
-82 c91 -649 198 -1869 242 -2743 7 -126 15 -275 18 -330 l7 -100 433 -3 433
-2 -5 267 c-3 148 -8 405 -11 573 -3 168 -12 395 -20 505 -25 342 -35 551 -35
712 0 154 0 155 -40 271 -38 113 -78 279 -99 412 -11 66 -61 485 -61 508 0 9
117 12 550 12 303 0 550 3 550 7 0 4 -11 84 -25 178 -13 93 -33 242 -45 330
-11 88 -23 172 -26 188 l-6 27 -1539 0 c-1076 0 -1539 -3 -1539 -11z m3070 -4
c0 -3 20 -156 45 -339 25 -184 45 -339 45 -345 0 -6 -186 -11 -539 -13 -297
-2 -543 -6 -547 -11 -9 -9 7 -176 42 -437 26 -197 77 -422 125 -552 28 -77 29
-84 29 -271 0 -106 7 -291 15 -412 8 -121 19 -286 25 -366 5 -80 12 -336 15
-570 3 -233 8 -472 10 -531 l5 -108 -423 0 -423 0 -13 263 c-42 890 -125 1888
-227 2717 -13 113 -27 220 -30 238 l-6 32 -553 0 -553 0 -6 24 c-3 13 -22 144
-41 292 -19 148 -37 280 -39 294 -3 14 -7 42 -11 63 l-6 37 1531 0 c841 0
1530 -2 1530 -5z"/>
<path d="M25255 57188 c-2 -7 -24 -116 -50 -243 -172 -862 -443 -1918 -736
-2875 -56 -181 -255 -807 -266 -837 -4 -11 76 -13 462 -11 l467 3 84 275 c46
151 101 327 122 390 l39 115 747 3 747 2 60 -126 c70 -147 167 -378 230 -546
l44 -118 467 0 468 0 -21 53 c-203 517 -707 1659 -1077 2442 -49 105 -115 244
-147 310 -31 66 -174 357 -317 648 l-262 527 -528 0 c-414 0 -530 -3 -533 -12z
m1217 -335 c533 -1078 885 -1833 1280 -2743 58 -134 318 -755 348 -829 l20
-51 -450 2 -450 3 -100 250 c-56 138 -133 316 -173 395 l-72 145 -754 0 -754
0 -24 -70 c-25 -72 -164 -522 -203 -652 l-21 -73 -449 0 c-248 0 -450 3 -450
6 0 4 29 95 64 203 395 1202 738 2497 956 3601 11 58 23 115 25 128 l5 22 518
0 517 0 167 -337z"/>
<path d="M28156 57173 c73 -113 430 -569 824 -1053 414 -509 660 -826 660
-850 0 -29 -616 -1130 -801 -1433 -89 -145 -302 -468 -368 -560 l-42 -57 467
2 466 3 232 405 c127 223 319 567 426 763 107 196 197 357 200 357 8 0 268
-383 666 -982 l365 -548 495 0 495 0 -69 83 c-166 198 -415 527 -837 1107
-142 195 -335 458 -428 583 l-170 229 20 42 c11 22 116 214 232 424 272 492
415 760 535 1000 107 214 236 489 236 503 0 5 -189 9 -463 9 l-463 0 -76 -192
c-42 -106 -111 -269 -153 -363 -95 -209 -436 -905 -444 -905 -3 1 -28 33 -56
72 -27 40 -146 198 -264 352 -344 450 -503 666 -631 857 l-121 179 -475 0
-476 0 18 -27z m1028 -143 c137 -204 304 -433 536 -735 102 -132 241 -316 309
-408 68 -92 129 -167 135 -167 11 0 154 285 366 730 111 233 210 460 276 637
l39 103 448 0 448 0 -7 -22 c-11 -36 -171 -370 -257 -538 -154 -300 -242 -463
-522 -970 -173 -313 -235 -428 -235 -435 0 -4 76 -109 168 -234 93 -124 285
-386 427 -581 443 -609 704 -954 833 -1105 29 -33 52 -63 52 -67 0 -5 -211 -8
-468 -8 l-468 0 -382 573 c-472 709 -649 967 -665 967 -7 0 -50 -71 -96 -158
-146 -271 -477 -867 -630 -1129 l-146 -253 -443 0 c-352 0 -442 3 -436 13 4 6
28 41 54 77 163 223 455 701 710 1160 212 382 430 783 430 792 0 19 -267 365
-545 708 -545 671 -945 1181 -945 1204 0 3 204 6 453 6 l453 0 108 -160z"/>
<path d="M28895 39956 c-58 -26 -105 -101 -105 -168 0 -41 30 -106 61 -134 18
-16 408 -204 424 -204 1 0 5 25 9 55 10 87 42 159 98 220 28 31 49 57 47 59
-2 1 -94 44 -205 94 -214 98 -259 109 -329 78z"/>
<path d="M46207 37234 c-3 -3 -3 -13 0 -22 4 -10 2 -13 -5 -8 -7 4 -12 2 -12
-4 0 -7 -9 -24 -20 -40 -11 -15 -18 -37 -15 -49 3 -16 -1 -21 -16 -21 -10 0
-19 -4 -19 -9 0 -5 10 -7 23 -5 14 4 12 0 -9 -9 -31 -15 -49 -41 -45 -64 1 -7
-3 -13 -8 -13 -16 0 -63 -88 -55 -101 4 -7 3 -9 -4 -5 -6 3 -21 -14 -36 -40
-22 -39 -24 -50 -14 -63 11 -14 11 -14 -2 -4 -13 10 -23 0 -63 -68 -27 -43
-45 -84 -41 -91 4 -6 3 -8 -3 -5 -6 4 -51 -57 -101 -136 -526 -827 -1178
-1501 -1991 -2055 -74 -51 -130 -92 -124 -92 6 0 60 -23 119 -51 105 -49 241
-112 609 -279 94 -43 254 -116 357 -164 237 -109 474 -217 848 -389 162 -74
336 -154 385 -177 50 -23 364 -168 698 -321 l609 -279 101 87 c56 49 142 127
192 174 49 47 107 101 129 120 48 43 294 310 376 409 127 152 252 321 421 570
250 369 342 485 378 478 46 -10 -1 -138 -256 -693 -275 -598 -455 -1008 -592
-1353 -43 -107 -47 -122 -32 -122 5 0 51 -20 102 -44 52 -24 175 -81 274 -126
99 -45 214 -98 255 -117 62 -29 447 -205 710 -325 36 -17 171 -79 300 -138
129 -59 424 -194 654 -300 231 -105 503 -230 605 -277 102 -47 215 -99 251
-115 36 -17 198 -91 360 -165 162 -75 324 -149 360 -165 220 -101 820 -376
1010 -463 124 -57 252 -117 285 -133 182 -89 2777 -1273 2781 -1269 3 2 16
105 30 228 174 1572 636 3108 1459 4849 86 182 360 727 372 740 3 3 60 -24
126 -59 1074 -563 1751 -1247 2026 -2046 283 -820 97 -1809 -512 -2725 -265
-398 -651 -825 -1023 -1132 -100 -82 -227 -182 -252 -197 -9 -6 -5 -25 18 -81
17 -40 28 -75 25 -78 -24 -24 -359 -40 -472 -23 -43 7 -123 31 -178 53 -119
47 -218 68 -325 68 -116 0 -270 -37 -270 -65 0 -18 52 -48 135 -78 39 -14 77
-28 87 -32 14 -5 8 -25 -44 -138 -34 -73 -75 -165 -93 -206 -29 -64 -39 -77
-81 -102 -97 -57 -331 -149 -380 -149 -12 0 -27 -7 -35 -16 -11 -13 -10 -21 6
-50 23 -42 119 -123 197 -164 59 -32 65 -39 49 -55 -7 -8 -216 -455 -414 -885
-13 -30 -55 -120 -91 -199 -37 -79 -65 -145 -64 -147 13 -13 284 -131 289
-126 3 4 77 162 164 352 87 190 186 406 220 480 34 74 100 217 145 318 77 166
86 182 110 182 58 0 221 31 295 56 44 15 136 55 205 89 69 34 202 97 295 140
94 42 230 106 304 142 73 35 138 62 143 61 5 -2 26 -43 46 -91 l37 -88 135 -7
c224 -12 984 -7 1090 7 52 6 104 12 115 12 75 -1 430 55 663 105 183 39 535
140 540 155 2 5 7 7 11 4 18 -10 506 191 536 222 8 7 17 14 20 13 20 -1 25 1
25 11 0 5 -4 8 -9 4 -5 -3 -13 0 -17 6 -5 8 -3 9 6 4 8 -5 11 -4 6 3 -4 6 -14
8 -22 5 -11 -4 -12 -8 -4 -13 8 -5 5 -12 -11 -23 -12 -9 -26 -14 -31 -11 -4 3
-8 0 -8 -6 0 -6 -5 -8 -10 -5 -6 4 -18 1 -26 -6 -23 -19 -47 -21 -40 -3 3 9 1
12 -4 9 -6 -3 -10 -15 -10 -27 0 -17 -3 -18 -15 -8 -8 7 -13 16 -10 20 10 16
-10 18 -30 3 -16 -12 -17 -14 -3 -11 17 3 18 1 18 -28 0 -22 -32 -14 -36 9 -3
22 -32 46 -57 47 -21 0 -49 25 -66 58 -8 15 -21 22 -42 22 -17 0 -32 6 -35 15
-4 8 -15 15 -25 15 -10 0 -19 5 -19 10 0 6 -9 10 -19 10 -10 0 -21 7 -25 15
-3 8 -12 15 -21 15 -9 0 -31 16 -50 35 -20 19 -41 32 -49 29 -8 -3 -17 -1 -21
5 -3 6 -17 11 -31 11 -19 0 -24 5 -24 23 0 32 -30 57 -68 57 -25 0 -32 4 -32
20 0 11 5 20 10 20 6 0 10 9 10 20 0 11 -4 20 -10 20 -5 0 -10 -9 -10 -20 0
-15 -7 -20 -29 -20 -17 0 -32 4 -35 9 -3 4 -19 11 -35 14 -16 4 -45 22 -65 42
-19 19 -40 35 -46 35 -5 0 -10 5 -10 10 0 6 -18 10 -40 10 -35 0 -40 3 -40 23
0 33 -30 57 -72 57 -27 0 -37 5 -41 20 -5 21 -9 23 -76 40 -28 8 -45 18 -48
31 -3 10 -14 19 -24 19 -11 0 -19 5 -19 10 0 6 -7 10 -15 10 -9 0 -18 7 -21
15 -4 10 -20 15 -45 15 -34 0 -39 3 -39 23 0 33 -30 57 -72 57 -26 0 -37 5
-40 18 -6 20 -82 62 -111 62 -9 0 -17 7 -17 15 0 8 -6 12 -14 9 -8 -3 -19 3
-26 15 -6 12 -17 21 -25 21 -8 0 -15 5 -15 10 0 6 -18 10 -40 10 -36 0 -40 3
-40 25 0 18 -5 25 -19 25 -10 0 -21 7 -25 15 -4 11 2 15 20 15 17 0 23 4 18
13 -6 9 -4 9 8 -1 11 -9 18 -10 23 -2 3 5 0 10 -7 11 -7 0 -2 5 11 10 14 5 31
7 38 5 7 -3 13 -1 13 3 0 5 14 14 31 20 43 15 49 13 19 -4 -14 -8 -20 -14 -13
-15 6 0 18 -3 27 -6 12 -5 16 0 16 20 0 26 8 30 58 26 14 -1 22 4 22 14 0 14
18 21 43 17 4 0 7 4 7 9 0 6 6 10 13 8 6 -1 22 3 35 10 12 7 22 10 22 6 0 -3
7 -1 15 6 8 7 15 9 15 5 0 -5 8 -1 18 7 9 8 100 48 202 88 830 328 1156 523
1415 846 281 349 456 813 506 1337 17 184 7 584 -19 752 -76 484 -237 890
-483 1217 -97 130 -277 303 -403 386 -125 84 -208 127 -420 219 -271 117 -377
177 -508 287 -161 134 -323 381 -398 604 -40 122 -58 234 -75 477 -17 237 -20
269 -41 378 -105 541 -621 994 -1357 1191 -391 105 -824 123 -1185 50 -342
-68 -706 -245 -1012 -492 -183 -148 -437 -415 -606 -637 -586 -773 -1068
-1953 -1203 -2945 -33 -245 -35 -265 -34 -276 0 -6 -9 -10 -21 -7 -20 3 -20 3
2 -8 12 -7 22 -16 22 -22 0 -5 -10 -7 -22 -4 -23 6 -23 6 -3 -9 16 -12 17 -16
6 -23 -11 -7 -11 -9 0 -14 12 -4 11 -7 -1 -16 -12 -9 -12 -11 -1 -11 11 0 12
-10 6 -42 -4 -24 -6 -63 -5 -86 0 -29 -3 -42 -10 -37 -6 4 -8 14 -6 23 3 10 2
23 -3 30 -7 11 -10 10 -15 -3 -3 -9 -4 -21 0 -26 3 -5 2 -14 -2 -21 -12 -20
-14 -62 -5 -109 8 -42 9 -41 9 26 0 91 0 89 17 71 8 -8 15 -25 14 -38 0 -22
-1 -22 -9 -3 -5 12 -7 -23 -5 -90 2 -72 1 -95 -4 -65 l-8 45 -3 -45 c-2 -30
-4 -36 -7 -20 -5 28 -39 59 -66 60 -21 0 -49 25 -66 58 -8 15 -21 22 -42 22
-17 0 -32 6 -35 15 -4 8 -15 15 -25 15 -10 0 -19 4 -19 9 0 5 -16 15 -35 21
-19 6 -55 31 -81 56 -39 36 -54 44 -86 44 -21 0 -38 5 -38 11 0 21 -58 69 -85
69 -14 0 -28 7 -31 15 -4 8 -14 15 -24 15 -10 0 -20 7 -24 15 -3 8 -12 12 -21
9 -10 -4 -15 0 -15 10 0 10 -8 16 -21 16 -12 0 -34 14 -49 30 -15 17 -33 30
-39 30 -6 0 -11 5 -11 10 0 6 -18 10 -40 10 -35 0 -40 3 -40 23 0 34 -30 57
-73 57 -25 0 -37 5 -37 14 0 21 -25 37 -59 38 -19 1 -31 6 -31 15 0 7 -9 13
-20 13 -11 0 -20 7 -20 15 0 8 -6 12 -14 9 -8 -3 -19 3 -26 15 -6 12 -17 21
-25 21 -8 0 -15 5 -15 10 0 6 -18 10 -40 10 -35 0 -40 3 -40 23 0 33 -30 57
-71 57 -26 0 -37 5 -44 23 -6 12 -20 23 -32 25 -12 2 -27 10 -33 18 -7 8 -23
14 -36 14 -14 0 -24 6 -24 15 0 8 -6 12 -14 9 -8 -3 -19 3 -26 15 -6 12 -17
21 -25 21 -8 0 -15 5 -15 10 0 6 -18 10 -39 10 -36 0 -40 3 -43 28 -3 23 -8
27 -40 30 -21 2 -38 7 -38 13 0 5 -6 9 -14 9 -7 0 -16 8 -18 18 -5 18 -81 62
-107 62 -15 0 -45 28 -60 58 -8 15 -21 22 -42 22 -17 0 -32 6 -35 15 -4 8 -15
15 -25 15 -10 0 -19 5 -19 10 0 6 -9 10 -19 10 -10 0 -21 7 -25 15 -3 8 -12
15 -21 15 -9 0 -31 16 -50 35 -20 19 -41 32 -49 29 -8 -3 -17 -1 -21 5 -3 6
-17 11 -31 11 -19 0 -24 5 -24 23 0 32 -30 57 -68 57 -25 0 -32 4 -32 20 0 11
5 20 10 20 6 0 10 9 10 20 0 11 -4 20 -10 20 -5 0 -10 -9 -10 -20 0 -15 -7
-20 -29 -20 -17 0 -32 4 -35 9 -3 4 -19 11 -35 14 -16 4 -45 22 -65 42 -19 19
-40 35 -46 35 -5 0 -10 5 -10 10 0 6 -18 10 -40 10 -35 0 -40 3 -40 23 0 33
-30 57 -72 57 -27 0 -37 5 -41 20 -5 21 -9 23 -76 40 -28 8 -45 18 -48 31 -3
10 -14 19 -24 19 -11 0 -19 5 -19 10 0 6 -7 10 -15 10 -9 0 -18 7 -21 15 -4
10 -20 15 -45 15 -34 0 -39 3 -39 23 0 33 -30 57 -72 57 -26 0 -37 5 -40 18
-6 20 -82 62 -111 62 -9 0 -17 7 -17 15 0 8 -6 12 -14 9 -8 -3 -19 3 -26 15
-6 12 -17 21 -25 21 -8 0 -15 5 -15 10 0 6 -18 10 -40 10 -36 0 -40 3 -40 25
0 18 -5 25 -19 25 -10 0 -21 7 -25 15 -3 9 -18 15 -35 15 -19 0 -30 6 -33 18
-6 20 -82 62 -111 62 -9 0 -17 4 -17 9 0 21 -59 71 -84 71 -15 0 -29 6 -32 14
-3 8 -21 17 -41 21 -23 4 -37 13 -40 26 -3 10 -14 19 -24 19 -11 0 -35 16 -54
35 -20 19 -41 32 -49 29 -8 -3 -17 -1 -21 5 -3 6 -17 11 -31 11 -19 0 -24 5
-24 23 0 32 -30 57 -68 57 -25 0 -32 4 -32 20 0 11 5 20 10 20 6 0 10 9 10 20
0 11 -4 20 -10 20 -5 0 -10 -9 -10 -20 0 -15 -7 -20 -29 -20 -17 0 -32 4 -36
10 -3 5 -12 7 -19 4 -7 -3 -16 2 -19 10 -4 9 -13 16 -22 16 -8 0 -15 5 -15 10
0 6 -7 10 -15 10 -8 0 -19 9 -25 20 -6 11 -17 20 -25 20 -8 0 -15 5 -15 10 0
6 -18 10 -40 10 -35 0 -40 3 -40 23 0 33 -30 57 -72 57 -27 0 -37 5 -41 20 -5
21 -9 23 -76 40 -28 7 -45 18 -48 30 -3 10 -11 16 -18 14 -8 -3 -18 4 -25 15
-6 12 -17 21 -25 21 -8 0 -15 4 -15 9 0 6 -19 11 -42 13 -37 3 -43 6 -40 23 3
20 3 20 -11 1 -10 -13 -16 -15 -21 -8 -4 7 -12 12 -18 12 -7 0 -7 -4 0 -13 8
-10 6 -13 -8 -13 -18 0 -18 2 -5 23 9 13 13 23 9 23 -4 0 0 8 7 17 12 15 12
16 -3 10 -11 -4 -22 2 -32 19 -9 13 -13 24 -9 24 5 0 8 13 8 29 1 23 -2 27
-11 20 -10 -8 -12 -3 -11 20 1 17 -2 30 -8 28 -5 -1 -10 -10 -10 -19 -1 -9 2
-15 7 -12 4 3 5 -2 2 -10 -5 -12 -13 -7 -34 21 -21 30 -25 41 -16 52 8 11 8
13 -1 7 -18 -10 -36 3 -24 17 6 8 5 19 -5 31 -15 21 -32 15 -18 -7 5 -7 -3 1
-18 18 -29 32 -34 50 -17 60 6 5 4 12 -8 22 -10 8 -12 12 -5 8 6 -3 12 -1 12
4 0 14 -27 14 -35 1 -3 -6 1 -13 9 -16 9 -3 13 -10 10 -15 -3 -5 -23 8 -45 28
-21 20 -37 39 -33 42 3 3 9 -1 13 -8 5 -7 14 -10 20 -7 14 9 14 36 0 36 -5 0
-7 -5 -3 -12 4 -6 3 -8 -4 -4 -6 3 -9 16 -7 28 3 11 2 18 -2 14 -3 -3 -12 -1
-18 4 -9 8 -14 6 -19 -5 -4 -11 -2 -14 7 -9 9 5 9 4 1 -5 -9 -10 -18 -6 -40
16 -16 15 -29 31 -29 35 0 4 -6 13 -14 20 -10 9 -12 9 -7 1 5 -9 2 -11 -8 -7
-8 3 -17 12 -20 20 -3 9 -10 13 -15 9 -5 -3 -12 -1 -15 4 -4 5 -1 13 5 17 8 5
9 3 4 -6 -5 -9 -4 -11 4 -6 8 6 9 12 2 20 -7 9 -7 16 1 24 8 8 6 10 -8 8 -11
-2 -19 -10 -19 -19 0 -9 -5 -16 -10 -14 -6 1 -9 6 -7 10 1 5 -2 6 -7 3 -14 -9
-42 5 -34 17 3 6 1 7 -5 3 -6 -4 -28 1 -49 9 l-38 16 24 20 c13 11 21 23 17
27 -4 4 -12 -1 -17 -11 -8 -14 -14 -15 -30 -6 -12 6 -23 8 -26 5 -3 -3 2 -8
11 -12 9 -3 16 -10 16 -15 0 -10 -60 0 -74 11 -4 5 -31 6 -58 3 -35 -3 -48 -2
-44 6 4 6 13 11 21 11 8 0 17 4 20 10 4 6 -4 6 -21 0 -15 -6 -33 -9 -40 -6 -8
3 -16 1 -19 -4 -4 -6 -16 -11 -28 -11 -18 -1 -18 -2 -4 -6 10 -3 25 1 33 8 12
10 13 9 8 -5 -3 -9 -16 -16 -28 -16 -11 -1 -38 -7 -58 -14 -21 -8 -38 -10 -38
-5 0 5 -4 9 -10 9 -5 0 -7 -7 -4 -15 5 -13 -1 -17 -22 -14 -4 0 -10 -5 -14
-11 -5 -8 -10 -9 -14 -2 -3 6 2 13 12 17 14 4 18 12 14 30 -4 26 12 35 22 13
3 -7 3 -3 0 10 -4 16 -1 22 13 23 11 0 13 3 5 6 -7 3 -21 -2 -31 -11 -16 -15
-19 -15 -31 -1 -7 8 -28 15 -46 15 -27 0 -34 4 -34 20 0 11 5 20 10 20 6 0 10
9 10 20 0 11 -4 20 -10 20 -5 0 -10 -9 -10 -20 0 -22 -35 -28 -68 -11 -9 5
-29 14 -44 20 -16 6 -28 17 -28 25 0 9 -6 13 -14 10 -8 -3 -19 3 -26 15 -6 12
-17 21 -25 21 -8 0 -15 5 -15 10 0 6 -18 10 -40 10 -36 0 -40 3 -40 24 0 30
-16 41 -52 37 -16 -1 -28 2 -28 8 0 6 -6 11 -13 11 -7 0 -17 10 -22 23 -6 12
-20 23 -32 25 -12 2 -27 10 -33 18 -7 8 -23 14 -36 14 -15 0 -24 6 -24 15 0 8
-9 15 -20 15 -11 0 -20 5 -20 10 0 6 -7 10 -15 10 -9 0 -18 7 -21 15 -4 10
-20 15 -44 15 -35 0 -39 3 -42 28 -3 23 -8 27 -40 30 -21 2 -38 7 -38 13 0 5
-6 9 -14 9 -7 0 -16 8 -18 18 -5 18 -81 62 -107 62 -15 0 -45 28 -60 58 -9 17
-20 22 -51 22 -29 0 -43 6 -58 25 -11 14 -27 25 -35 25 -8 0 -17 7 -21 15 -3
8 -12 15 -21 15 -9 0 -31 16 -50 35 -20 19 -41 32 -49 29 -8 -3 -17 -1 -21 5
-3 6 -17 11 -31 11 -13 0 -24 5 -24 11 0 24 -59 69 -89 69 -21 0 -31 5 -31 15
0 16 -45 40 -67 36 -7 -1 -13 3 -13 8 0 6 -15 17 -34 25 -19 8 -39 24 -46 35
-6 12 -21 21 -35 21 -13 0 -27 5 -30 10 -3 6 -17 10 -31 10 -19 0 -24 5 -24
23 0 33 -30 57 -72 57 -27 0 -37 5 -41 20 -5 21 -9 23 -76 40 -28 7 -45 18
-48 30 -3 10 -11 16 -18 14 -8 -3 -18 3 -24 14 -6 11 -22 23 -36 26 -14 4 -23
11 -20 16 6 10 -9 22 -18 14z"/>
<path d="M23615 34513 c-281 -34 -499 -114 -710 -261 -100 -70 -312 -281 -387
-387 -114 -161 -269 -427 -257 -440 4 -3 94 -23 200 -45 107 -21 275 -59 373
-84 99 -25 180 -45 180 -43 1 1 23 47 50 102 355 731 1151 1097 1891 870 50
-15 -103 52 -220 97 -252 96 -525 164 -754 187 -97 10 -299 13 -366 4z"/>
<path d="M15245 33639 c-357 -43 -680 -204 -950 -474 -148 -148 -235 -268
-324 -450 -237 -480 -250 -999 -36 -1452 23 -50 64 -123 89 -162 25 -40 46
-75 46 -78 0 -4 -55 -63 -123 -132 -187 -192 -398 -433 -587 -671 l-83 -105
104 -13 c192 -23 393 -86 532 -168 32 -19 60 -34 62 -34 2 0 50 60 107 133
219 282 387 478 641 747 l146 155 -17 25 c-129 194 -207 385 -250 615 -26 142
-23 436 7 585 75 379 243 688 516 948 217 207 513 366 770 413 35 7 62 16 59
20 -7 12 -149 57 -249 79 -106 24 -340 34 -460 19z"/>
<path d="M41570 33035 c-70 -20 -129 -55 -169 -101 -80 -91 -69 -177 40 -313
28 -35 59 -88 70 -119 129 -374 668 -769 1369 -1002 388 -129 667 -174 1080
-174 230 0 552 24 572 43 4 3 -353 170 -792 371 -440 201 -799 367 -799 370 0
3 56 27 124 53 69 27 125 51 124 55 0 4 -98 55 -217 114 -350 172 -622 339
-825 506 -58 48 -131 102 -161 120 -128 78 -299 109 -416 77z"/>
<path d="M27150 31753 c-148 -15 -382 -84 -563 -165 -78 -35 -272 -136 -329
-172 -15 -9 7 -36 165 -196 100 -102 186 -187 190 -188 4 -2 27 12 50 31 100
82 272 178 412 230 508 189 1051 100 1450 -239 l70 -59 -50 65 c-83 108 -332
349 -433 420 -218 154 -402 232 -622 265 -86 14 -251 17 -340 8z"/>
<path d="M21090 30594 c958 -221 1796 -682 2480 -1364 799 -798 1335 -1873
1514 -3040 92 -602 92 -1234 0 -1840 -222 -1454 -969 -2822 -2066 -3788 -787
-692 -1736 -1164 -2733 -1361 -325 -64 -569 -90 -925 -98 -151 -3 -276 -7
-277 -8 -5 -3 275 -46 400 -60 935 -106 1934 59 2847 472 1773 802 3092 2481
3499 4453 125 606 155 1279 85 1900 -126 1127 -579 2181 -1292 3007 -139 160
-422 441 -567 562 -331 275 -663 491 -1040 676 -585 286 -1168 448 -1825 505
-63 5 -135 10 -160 9 -38 0 -29 -4 60 -25z"/>
<path d="M47291 30050 c-6 -29 -38 -208 -72 -398 -146 -839 -222 -1063 -519
-1523 -141 -218 -174 -296 -173 -417 1 -64 6 -83 37 -147 73 -148 255 -274
529 -364 l68 -23 -7 -971 c-24 -3569 162 -7257 546 -10817 44 -401 147 -1318
165 -1460 54 -426 88 -690 165 -1275 9 -67 158 -1109 192 -1342 l11 -73 67 0
66 0 24 -177 c13 -98 24 -184 24 -190 1 -7 -78 -49 -174 -94 -957 -443 -1665
-809 -1782 -919 -45 -44 -43 -63 10 -82 60 -21 394 -13 832 21 506 39 729 50
965 49 292 -1 504 36 666 117 121 61 179 130 179 212 0 40 -30 158 -101 392
l-43 143 24 269 23 268 38 6 37 6 82 227 c397 1104 724 2323 929 3462 182
1012 305 2088 342 3000 13 320 7 1087 -12 1450 -16 305 -16 1110 -1 1330 32
448 87 919 157 1333 85 508 178 892 371 1529 21 70 39 126 40 125 1 -1 7 -175
13 -387 25 -846 64 -1517 142 -2418 7 -78 16 -137 20 -130 3 7 3 49 -2 93 -73
720 -121 1577 -153 2705 -2 79 -8 146 -13 147 -5 2 15 83 44 181 29 97 85 294
124 437 39 143 74 271 78 285 8 26 72 -85 449 -780 440 -812 1008 -1936 1432
-2835 1314 -2783 2404 -5664 3281 -8669 54 -187 105 -343 112 -348 19 -12 195
-68 215 -68 14 0 35 -52 105 -252 56 -160 84 -254 77 -258 -5 -3 -17 -80 -25
-171 -51 -542 -106 -860 -175 -1003 -49 -104 -113 -164 -319 -301 -196 -129
-277 -201 -311 -277 -21 -47 -26 -121 -10 -163 12 -31 -10 -32 368 21 517 73
857 161 960 250 39 33 45 46 96 202 49 150 158 539 232 822 33 128 35 229 7
310 -11 30 -69 135 -130 232 l-110 177 -7 228 c-4 125 -9 246 -12 268 -5 38
-3 41 39 67 59 37 194 153 207 179 14 25 39 182 79 499 152 1182 179 2357 80
3550 -94 1147 -250 2037 -523 2982 -217 751 -405 1211 -811 1978 -348 659
-565 1145 -799 1792 -218 605 -318 976 -501 1863 -71 345 -171 791 -215 965
l-19 74 37 44 c20 24 42 51 49 61 11 14 -71 54 -770 376 -1074 493 -1013 463
-1084 533 -107 108 -160 247 -149 393 l5 76 -607 278 c-334 153 -654 300 -711
327 -57 26 -105 48 -106 48 -2 0 -47 21 -102 46 -54 25 -224 104 -378 174
-154 70 -469 214 -700 320 -231 106 -463 212 -515 235 -52 23 -198 89 -325
148 -965 444 -2333 1070 -2346 1074 -13 4 -19 -6 -28 -47z"/>
<path d="M55691 25826 c2 -2 479 -222 1059 -489 580 -267 1197 -550 1370 -630
504 -231 1593 -732 2865 -1317 649 -299 1206 -551 1238 -562 66 -20 185 -24
257 -7 74 17 171 70 228 127 30 29 52 56 48 59 -3 3 -32 -19 -64 -49 -119
-114 -271 -159 -424 -127 -29 6 -163 62 -298 124 -135 62 -409 188 -610 280
-201 92 -621 286 -935 430 -313 144 -847 390 -1185 545 -338 155 -649 298
-690 317 -2035 938 -2833 1303 -2847 1303 -9 0 -14 -2 -12 -4z"/>
<path d="M64320 24271 c0 -10 155 -82 1070 -500 139 -64 163 -81 153 -109 -36
-97 -467 -1010 -481 -1020 -16 -11 -30 -7 -93 22 -452 212 -1124 516 -1133
513 -6 -3 9 -14 34 -25 25 -11 218 -99 430 -197 693 -319 729 -335 747 -335
31 0 41 13 83 105 294 637 430 938 430 953 0 11 -8 26 -17 34 -14 12 -550 261
-1150 534 -40 19 -73 30 -73 25z"/>
<path d="M11475 22558 c3 -13 19 -84 35 -158 68 -304 151 -597 258 -908 l59
-173 -56 -36 c-329 -210 -585 -547 -709 -933 -192 -601 -37 -1258 381 -1621
164 -142 398 -277 632 -364 109 -40 331 -100 412 -111 43 -5 51 -9 51 -28 -1
-11 2 -39 6 -61 13 -76 16 -95 22 -127 3 -18 7 -44 10 -58 4 -24 8 -41 19
-107 10 -65 16 -99 20 -118 3 -11 7 -36 10 -55 9 -50 15 -82 20 -105 3 -11 7
-36 11 -55 8 -53 14 -83 19 -105 2 -11 6 -33 10 -50 3 -16 7 -39 10 -50 2 -11
6 -33 10 -50 3 -16 7 -41 10 -55 3 -14 7 -36 10 -50 10 -48 13 -65 20 -90 4
-14 8 -35 11 -47 2 -13 6 -33 8 -45 3 -13 7 -34 11 -48 6 -25 13 -55 19 -95 2
-11 5 -20 6 -20 1 0 4 -10 6 -22 2 -13 6 -33 8 -45 2 -13 5 -23 6 -23 1 0 4
-9 6 -20 1 -11 5 -31 9 -45 4 -14 8 -34 9 -45 2 -11 5 -20 6 -20 1 0 4 -9 6
-20 2 -19 5 -31 20 -87 3 -13 6 -30 6 -38 0 -8 5 -20 10 -27 5 -7 7 -17 4 -22
-4 -5 -2 -12 3 -16 5 -3 10 -13 9 -23 0 -9 3 -27 6 -39 3 -13 8 -32 11 -43 3
-11 7 -29 10 -40 3 -11 7 -29 10 -40 3 -11 7 -29 10 -40 12 -46 16 -66 18 -75
2 -5 6 -16 10 -22 5 -7 6 -17 2 -22 -3 -5 0 -13 6 -16 5 -4 8 -13 5 -20 -2 -7
-2 -16 2 -19 3 -4 7 -12 8 -19 2 -7 5 -22 8 -34 3 -13 9 -33 12 -45 3 -13 7
-30 9 -38 2 -8 4 -17 5 -20 1 -3 3 -9 5 -15 1 -5 3 -12 4 -15 2 -3 4 -13 7
-22 2 -10 6 -26 8 -35 3 -10 5 -20 6 -23 1 -3 3 -9 5 -15 1 -5 3 -12 4 -15 2
-3 4 -13 7 -22 2 -10 6 -26 8 -35 3 -10 5 -18 6 -18 1 0 3 -8 6 -17 2 -10 6
-26 8 -35 3 -10 5 -20 6 -23 1 -3 2 -9 1 -14 -1 -4 4 -14 10 -22 6 -8 8 -14 4
-14 -4 0 -2 -6 4 -13 6 -8 8 -17 5 -20 -3 -3 -2 -12 2 -19 5 -7 9 -16 10 -20
1 -5 2 -9 4 -10 1 -2 3 -11 6 -20 2 -10 6 -26 8 -35 3 -10 5 -19 6 -20 2 -2 4
-7 5 -13 1 -5 4 -13 5 -17 2 -5 4 -12 5 -18 2 -5 4 -13 5 -17 1 -5 4 -12 5
-18 1 -5 3 -11 5 -12 1 -2 3 -11 6 -20 2 -10 6 -26 8 -35 3 -10 5 -19 6 -20 2
-2 4 -7 5 -13 1 -5 4 -12 5 -15 1 -3 3 -8 4 -12 1 -5 5 -14 10 -21 4 -7 5 -16
2 -19 -3 -3 -1 -12 5 -20 6 -7 8 -13 4 -13 -4 0 -2 -7 5 -15 7 -8 9 -15 5 -15
-4 0 -2 -7 5 -15 7 -8 9 -15 5 -15 -4 0 -2 -6 4 -13 6 -8 8 -17 4 -20 -3 -4 0
-13 7 -22 7 -8 9 -15 5 -15 -4 0 -2 -7 5 -15 7 -8 9 -15 5 -15 -4 0 -2 -7 5
-15 7 -8 9 -15 5 -15 -4 0 -2 -7 5 -15 7 -8 9 -15 5 -15 -4 0 -2 -7 5 -15 7
-8 9 -15 5 -15 -4 0 -2 -7 5 -15 7 -8 9 -15 5 -15 -4 0 -2 -7 5 -15 7 -9 10
-18 7 -22 -4 -3 -2 -12 4 -20 6 -7 8 -13 4 -13 -4 0 -2 -7 5 -15 7 -8 9 -15 5
-15 -4 0 -2 -7 5 -15 7 -8 9 -15 5 -15 -4 0 -2 -7 5 -15 7 -8 9 -15 5 -15 -4
0 -2 -7 5 -15 7 -8 9 -15 5 -15 -4 0 -2 -7 5 -15 7 -8 9 -15 5 -15 -4 0 -2 -7
5 -15 7 -8 9 -15 5 -15 -4 0 -2 -7 5 -15 7 -8 9 -15 5 -15 -4 0 -2 -7 5 -15 7
-8 9 -15 5 -15 -4 0 -2 -7 5 -15 7 -8 9 -15 5 -15 -4 0 -2 -7 5 -15 7 -8 9
-15 5 -15 -4 0 -2 -7 5 -15 7 -8 9 -15 6 -15 -4 0 -1 -10 6 -22 7 -13 13 -26
14 -30 1 -5 3 -10 4 -13 1 -3 4 -9 5 -15 1 -5 4 -12 5 -15 1 -3 4 -9 5 -15 1
-5 4 -12 5 -15 1 -3 4 -9 5 -15 1 -5 4 -12 5 -15 1 -3 4 -9 5 -15 1 -5 4 -12
5 -15 1 -3 3 -8 4 -12 1 -5 7 -18 14 -30 7 -13 10 -23 6 -23 -3 0 -1 -7 6 -15
7 -8 9 -15 5 -15 -4 0 -2 -7 5 -15 7 -8 9 -15 5 -15 -4 0 -2 -7 5 -15 7 -8 9
-15 5 -15 -4 0 0 -11 9 -25 9 -14 14 -25 10 -25 -4 0 -1 -7 6 -15 7 -8 9 -15
5 -15 -4 0 -2 -7 5 -15 7 -8 9 -15 6 -15 -4 0 -1 -10 6 -22 7 -13 13 -26 14
-30 1 -5 3 -10 4 -13 1 -3 3 -8 4 -12 1 -5 7 -18 14 -30 7 -13 10 -23 6 -23
-3 0 -1 -7 6 -15 7 -8 10 -15 6 -15 -4 0 1 -11 10 -25 9 -14 13 -25 9 -25 -4
0 -2 -7 5 -15 7 -8 9 -15 6 -15 -4 0 -1 -10 6 -22 7 -13 13 -26 14 -30 1 -5 3
-11 4 -15 1 -5 2 -11 1 -15 0 -5 4 -8 11 -8 6 0 8 -3 5 -7 -4 -3 -2 -12 4 -20
6 -7 8 -13 5 -13 -4 0 -1 -10 6 -22 7 -13 13 -25 13 -28 0 -3 6 -15 13 -27 7
-13 10 -23 6 -23 -3 0 -1 -6 5 -13 6 -8 8 -17 4 -20 -3 -4 -1 -7 6 -7 7 0 10
-4 6 -9 -3 -5 -1 -12 5 -16 6 -4 8 -11 5 -16 -4 -5 -1 -9 6 -9 7 0 9 -3 6 -7
-4 -3 -2 -12 4 -20 6 -7 8 -13 5 -13 -4 0 -1 -10 6 -22 7 -13 11 -26 10 -30
-1 -5 3 -8 9 -8 5 0 8 -4 4 -9 -3 -5 -1 -12 5 -16 6 -4 8 -11 5 -16 -4 -5 -1
-9 4 -9 6 0 10 -3 9 -7 -1 -5 3 -18 10 -30 7 -13 10 -23 7 -23 -3 0 2 -11 11
-25 9 -14 13 -25 10 -25 -4 0 -1 -10 6 -22 7 -13 11 -26 10 -30 -1 -5 2 -8 8
-8 6 0 9 -3 8 -7 -1 -5 3 -18 10 -30 7 -13 10 -23 7 -23 -3 0 0 -10 7 -22 7
-13 11 -26 10 -30 -1 -5 3 -8 10 -8 6 0 8 -3 5 -6 -4 -4 0 -20 8 -35 8 -16 22
-42 31 -59 8 -16 13 -30 9 -30 -3 0 2 -15 12 -32 9 -18 16 -36 15 -40 -1 -5 3
-8 10 -8 6 0 8 -3 5 -6 -3 -4 -1 -16 5 -28 7 -11 11 -24 10 -28 -1 -5 3 -8 10
-8 6 0 8 -3 5 -7 -4 -3 2 -20 13 -38 11 -18 17 -35 13 -38 -3 -4 0 -7 7 -7 7
0 10 -3 7 -7 -4 -3 2 -20 13 -38 11 -18 17 -35 13 -38 -3 -4 0 -7 7 -7 7 0 10
-3 7 -6 -3 -4 5 -26 18 -49 14 -23 22 -45 18 -48 -3 -4 0 -7 7 -7 7 0 10 -3 7
-7 -4 -3 4 -25 18 -48 13 -23 21 -45 18 -49 -3 -3 0 -6 7 -6 7 0 10 -3 7 -7
-4 -3 9 -34 28 -68 19 -34 32 -65 28 -69 -3 -3 0 -6 7 -6 7 0 10 -3 7 -7 -4
-3 13 -43 38 -88 24 -45 42 -85 38 -89 -3 -3 -1 -6 6 -6 7 0 9 -4 6 -10 -3 -6
-1 -10 5 -10 6 0 8 -4 5 -10 -3 -5 -1 -10 6 -10 7 0 10 -3 6 -6 -5 -5 114
-257 129 -273 7 -8 234 -10 234 -2 0 4 -60 131 -134 282 -820 1680 -1438 3521
-1816 5409 -53 262 -170 902 -170 927 0 2 75 3 168 4 92 1 192 4 222 8 52 6
48 7 -71 19 -352 35 -631 164 -869 402 -384 382 -526 944 -383 1515 101 406
372 791 710 1007 58 37 81 57 77 68 -113 308 -246 765 -323 1119 -17 73 -32
135 -34 137 -2 3 -38 -1 -78 -7 -115 -18 -370 -6 -499 25 -58 13 -129 33 -158
45 -65 26 -64 26 -57 -1z"/>
<path d="M26791 19675 c-22 -30 -41 -57 -41 -61 0 -8 224 2 259 12 20 6 10 14
-70 55 -52 27 -97 49 -100 49 -4 0 -25 -25 -48 -55z"/>
<path d="M14125 18550 c-87 -65 -215 -139 -311 -180 l-65 -27 118 -109 c133
-123 294 -262 399 -347 l72 -57 -64 -125 c-206 -408 -245 -865 -109 -1281 171
-520 591 -889 1114 -978 131 -22 473 -20 470 3 0 3 -32 21 -71 40 -262 125
-509 379 -642 661 -105 224 -148 421 -149 680 -1 298 56 534 191 794 l59 114
-111 90 c-219 177 -495 434 -718 668 l-106 112 -77 -58z"/>
<path d="M23195 16816 c-122 -55 -309 -132 -399 -166 l-30 -11 74 -74 c167
-168 403 -300 635 -354 485 -114 538 -122 810 -126 165 -3 195 -2 140 6 -256
35 -501 141 -701 302 -131 106 -247 244 -339 405 -26 45 -47 82 -48 81 -1 0
-65 -29 -142 -63z"/>
<path d="M17785 16343 c-8 -20 -13 -38 -10 -41 3 -3 103 -18 222 -35 120 -16
228 -31 241 -33 21 -4 22 -8 22 -112 0 -330 96 -669 255 -907 201 -298 529
-505 948 -599 209 -47 307 -57 597 -62 267 -3 273 -3 195 11 -472 89 -824 352
-1035 774 -101 203 -149 396 -159 646 l-6 160 -60 8 c-385 49 -698 106 -1001
182 -98 25 -182 45 -186 45 -4 0 -15 -16 -23 -37z"/>
</g>
</svg>
